<?xml version="1.0" encoding="UTF-8"?>
<svg id="Layer_2" xmlns="http://www.w3.org/2000/svg" xmlns:xlink="http://www.w3.org/1999/xlink" viewBox="0 0 128.08983 146.94453"><defs><style>.cls-1{filter:url(#drop-shadow-1);}.cls-2{fill:#f1cb6f;}</style><filter id="drop-shadow-1" filterUnits="userSpaceOnUse"><feOffset dx=".18" dy=".18"/><feGaussianBlur result="blur" stdDeviation=".144"/><feFlood flood-color="#090909" flood-opacity=".5"/><feComposite in2="blur" operator="in"/><feComposite in="SourceGraphic"/></filter></defs><g id="Layer_1-2"><g class="cls-1"><path class="cls-2" d="M0,3.69027H9.68604L54.56401,79.20439v67.73804h-10.34645s4.5495-2.42151,4.5495-12.54782v-52.32844L6.45793,9.79698S4.69683,6.42154,0,3.69027Z"/><path class="cls-2" d="M16.11282,3.69027h11.08024s-2.78783,2.34822-.4397,6.53082,33.46085,55.62132,33.46085,55.62132V9.4873s.07338-4.84302-4.9378-5.72357H123.83384s3.74233,0,4.25599-3.76373V9.19378h-62.07868l-.00057,137.75074h-6.09046l.00057-69.28809L16.11282,3.69027Z"/><path class="cls-2" d="M77.43305,66.07937h24.67982s3.74233,0,4.11534-3.78237v9.19378l-34.75721,.01863-.0237-56.91616h56.64251v9.19378c-.51365-3.76373-4.25599-3.76373-4.25599-3.76373h-46.42448l.0237,46.05606Z"/><path class="cls-2" d="M71.29673,76.8829l34.93149-.00029v9.19378c-.54729-3.76345-4.28962-3.76345-4.28962-3.76345h-24.67982l-.00334,52.12013c0,10.12631,4.5542,12.51145,4.5542,12.51145h-10.35114l-.16177-70.06162Z"/></g></g></svg>