<?xml version="1.0" encoding="UTF-8"?>
<svg id="Layer_2" xmlns="http://www.w3.org/2000/svg" xmlns:xlink="http://www.w3.org/1999/xlink" viewBox="0 0 905.04767 52.79334"><defs><style>.cls-1{filter:url(#drop-shadow-1);}.cls-2{fill:#f1cb6f;}</style><filter id="drop-shadow-1" filterUnits="userSpaceOnUse"><feOffset dx=".18" dy=".18"/><feGaussianBlur result="blur" stdDeviation=".144"/><feFlood flood-color="#090909" flood-opacity=".5"/><feComposite in2="blur" operator="in"/><feComposite in="SourceGraphic"/></filter></defs><g id="Layer_1-2"><g class="cls-1"><path class="cls-2" d="M2.69238,5.24316C1.91309,3.87402,1.01514,2.92871,0,2.40918H3.36572l15.30664,26.00684v23.56152h-3.61426c.92139-.49609,1.4292-1.39355,1.52344-2.69238l.14209-1.31152V29.23047L2.69238,5.24316ZM22.56982,47.97363c.02295,1.67773,.46045,2.91797,1.31104,3.7207l.354,.2832h-3.61377V28.13184L5.31445,2.40918h3.93311l-.14209,.1416-.24756,.38965-.07129,.46094c-.04736,.6377,.18896,1.3584,.70898,2.16113l12.04639,20.05371L33.55322,4.71191c.11816-.21289,.23584-.49609,.35449-.85059l.10645-.6377-.03564-.35449c-.02393-.1416-.05908-.24805-.10596-.31836l-.10645-.1416h4.21631l-.49609,.53125c-.2832,.33105-.6377,.81445-1.06299,1.45215l-.88574,1.34668-12.96777,22.32227v19.91211Z"/><path class="cls-2" d="M41.3623,51.97754l.17725-.1416c.35449-.25977,.6377-.50781,.85059-.74414,.30664-.30664,.58447-.6377,.83252-.99219s.46631-.7793,.65527-1.27539L60.70801,9.49512l-.60205-1.55859-.21289-.49609-.24805-.53223c-.11816-.1416-.29541-.25879-.53125-.35352l-.17725-.07129,1.59424-2.48047,19.59375,47.97461h-4.07471l.17725-.10645c.59033-.37695,.88574-.97949,.88574-1.80664l-.0708-.56738-.38965-.99219-6.34229-14.91602h-17.57422l-6.37744,15.05859c-.1416,.2832-.24805,.60156-.31885,.95605l-.10645,.67285c0,.47363,.23584,.95703,.7085,1.45312l.24805,.24805h-5.52734Zm28.20361-20.33789l-7.75928-19.73535-8.25586,19.73535h16.01514ZM62.94043,0l19.94775,48.50488c.49609,1.32324,1.36963,2.42188,2.62207,3.2959l.24805,.17676h-3.68506L61.62939,2.26758l1.31104-2.26758Z"/><path class="cls-2" d="M93.21338,51.97754l.354-.2832c.82666-.80273,1.26367-2.04297,1.31104-3.7207V6.41309c-.04736-1.65332-.48438-2.89355-1.31104-3.7207l-.354-.2832h3.61377V51.97754h-3.61377Zm7.51123-25.72363v21.71973l.10645,1.31152c.1416,1.32227,.66113,2.21973,1.55908,2.69238h-3.61426V2.40918h3.61426l-.35449,.2832c-.68555,.59082-1.08691,1.39355-1.20459,2.40918l-.10645,1.31152V24.30566h32.56152V6.41309l-.10596-1.31152c-.16553-1.29883-.68555-2.19629-1.55908-2.69238h3.61377V51.97754h-3.61377l.354-.2832c.66113-.56738,1.06299-1.37012,1.20508-2.40918l.10596-1.31152V26.25391h-32.56152ZM137.18359,2.40918h3.61426l-.35449,.2832c-.68506,.59082-1.08643,1.39355-1.20459,2.40918l-.10645,1.31152V47.97363l.10645,1.31152c.1416,1.32227,.66113,2.21973,1.55908,2.69238h-3.61426V2.40918Z"/><path class="cls-2" d="M167.31445,51.97754l.35449-.2832c.66113-.56738,1.06299-1.37012,1.20459-2.40918l.10645-1.31152V4.57031h-16.61719c-.96924-.04688-1.78418,.34277-2.44482,1.16895l-.39014,.49609h-.2124l-.7085-3.82617h22.32178V51.97754h-3.61426Zm5.56299,0V2.40918h22.32178l-.74414,3.82617h-.2124l-.35449-.49609c-.68506-.82617-1.5-1.21582-2.44482-1.16895h-16.61719V47.97363l.10645,1.31152c.1416,1.32227,.66064,2.21973,1.55859,2.69238h-3.61377Z"/><path class="cls-2" d="M235.14453,2.40918l-33.27002,49.56836h-2.37402L231.31787,4.35742h-26.99854c-1.58301,.02441-2.95312,.44922-4.11035,1.27539l-.49561,.38965-.24805-.2832,1.77148-3.33008h33.90771Zm-31.32129,49.56836L237.09326,2.40918h2.40967l-31.85303,47.61914h30.3291l1.13379-.10547c.54346-.07129,1.07471-.23633,1.59473-.49609l1.23975-.70898c.16504-.07031,.34229-.18848,.53174-.35449l.2832,.24805-1.84229,3.36621h-37.09668Z"/><path class="cls-2" d="M252.80371,46.875c-.0708,.82715-.10645,1.66602-.10645,2.51562l.0708,1.24023c.04736,.33105,.1416,.65039,.28369,.95703l.17676,.38965h-4.7124l.46094-.49609c.87354-.9209,1.42871-2.55078,1.66504-4.88965l3.40137-39.64746-.9917-2.16113c-.40186-.73242-.92139-1.38184-1.55908-1.94922l-.60254-.4248h3.36621l22.95947,47.90332-1.09814,2.47949-20.19629-41.84375-3.11768,35.92676Zm25.36865,1.06348L256.20508,2.40918h3.25977l-.14209,.38965c-.0708,.21191-.10596,.44922-.10596,.70801-.02393,.37891,.04688,.73242,.2124,1.06348l.31885,.70898,18.35352,37.98242,17.46777-38.44336-.03516-.31934-.28369-.84961c-.18945-.33105-.3667-.61426-.53125-.85059l-.39014-.38965h3.18896l4.99609,49.56836h-3.25977l.2124-.2832c.33057-.47266,.50781-1.18066,.53174-2.12598,0-.42578-.01221-.75586-.03564-.99219l-3.96826-39.75391-17.82227,39.11621ZM302.72656,2.40918l-.24805,.35352c-.18945,.30762-.31885,.5791-.38965,.81543l-.0708,.85059c-.02393,.47266,0,.93359,.0708,1.38184l4.42871,43.89941,.0708,.53125c.16504,.66211,.46094,1.18164,.88623,1.55957,.04688,.02344,.11768,.08301,.2124,.17676h-3.22412l-4.99609-49.56836h3.25977Z"/><path class="cls-2" d="M317.23242,51.97754l.35449-.2832c.66064-.56738,1.0625-1.37012,1.20459-2.40918l.10596-1.31152V6.41309l-.10596-1.31152c-.16553-1.29883-.68555-2.19629-1.55908-2.69238h3.61377V51.97754h-3.61377Zm5.5625,0V2.40918h18.03467v3.61328l-.2832-.45996c-.47266-.6377-1.0752-1.01562-1.80713-1.13379l-.95654-.07129h-13.03906V27.13965h12.29492c1.25195,.07129,2.16113-.35352,2.72803-1.27539l.24805-.38965v5.2793c-.51953-1.15723-1.51172-1.71191-2.97607-1.66504h-12.29492v20.93945h14.4917c.68506-.02246,1.39355-.43652,2.12598-1.23926l.42529-.42578,.2832,.35449-2.05518,3.25977h-17.21973Z"/><path class="cls-2" d="M355.26465,7.29883V48.93066c-.02393,.33105,0,.67285,.0708,1.02734,.1416,1.11035,.67334,1.7832,1.59424,2.01953h-5.2793l.46094-.21289c.7793-.40137,1.18066-.99219,1.20459-1.77148V5.4209l-.92139-1.16992c-.30713-.37695-.55518-.66113-.74414-.84961l-1.02734-.78027-.31885-.21191h2.94092l44.78516,47.22949v2.58691L355.26465,7.29883Zm.1416-4.88965h4.07471l-.21289,.38965c-.04736,.07031-.05908,.16504-.03516,.2832,0,.54395,.40137,1.2168,1.20459,2.01953l35.60889,37.16797V5.4209c0-.33105-.02393-.68555-.07129-1.06348-.11816-.85059-.49561-1.42871-1.13379-1.73633l-.46045-.21191h5.2793c-.94482,.25977-1.47656,.93262-1.59424,2.01953-.0708,.37793-.09473,.70801-.0708,.99219l.03516,41.80859L355.40625,2.40918Z"/><path class="cls-2" d="M431.85986,51.97754l.35449-.2832c.82666-.80273,1.26318-2.04297,1.31104-3.7207V6.41309c-.04785-1.65332-.48438-2.89355-1.31104-3.7207l-.35449-.2832h3.61426V51.97754h-3.61426Zm5.56299-49.56836h19.52295v3.61328l-.2832-.45996c-.44922-.61426-1.04102-.99219-1.77148-1.13379l-.99268-.07129h-14.52686V27.13965h12.86182c1.08594,.04785,1.98389-.37695,2.69287-1.27539,.04688-.11719,.14062-.24805,.2832-.38965v5.2793c-.51953-1.15723-1.51172-1.71191-2.97607-1.66504h-12.86182v18.88477c-.02393,.23633,.02344,.67383,.1416,1.31152,.16504,1.3457,.67334,2.24414,1.52344,2.69238h-3.61377V2.40918Z"/><path class="cls-2" d="M470.28271,28.62793v3.33105c.02344,3.23633,.44824,6.04688,1.27539,8.43262,1.62988,4.98438,5.18457,8.33887,10.66504,10.0625,1.13379,.37793,2.2793,.61426,3.43652,.70898,.61426,.09375,1.58203,.12988,2.90527,.10547l-2.44434-.38965c-4.44141-.9209-7.96094-3.23535-10.55859-6.94434-2.19727-3.11816-3.30762-7.22754-3.33105-12.33008V2.40918h3.61426l-.31934,.2832c-.58984,.51953-.99121,1.32324-1.2041,2.40918l-.1416,1.31152V31.8877c.02344,2.97656,.41309,5.5752,1.16895,7.79492,.94434,2.95312,2.94043,5.40918,5.98828,7.37012,2.95215,1.88965,5.99902,2.83398,9.14062,2.83398,2.26758,0,4.52344-.53125,6.76758-1.59375,2.3623-1.11035,4.52344-2.62207,6.48438-4.53516l.88574-.88574V6.41309c-.04785-1.65332-.48438-2.89355-1.31152-3.7207l-.35352-.2832h3.61328V51.97754h-1.94824v-6.62598l-.88574,.85059c-1.6543,1.53613-3.2832,2.77637-4.88965,3.7207-1.51172,.89746-3.08301,1.57129-4.71289,2.01953-1.9834,.58984-4.08594,.87305-6.30664,.84961-5.90527,.02344-10.68848-1.95996-14.34961-5.95215-3.4248-3.7793-5.1377-8.7041-5.1377-14.77441V6.41309l-.1416-1.31152c-.21289-1.32227-.7207-2.21973-1.52344-2.69238h3.61426V28.62793ZM508.51318,2.40918h3.61426c-.94531,.51953-1.45312,1.41699-1.52441,2.69238l-.1416,1.31152V47.97363c-.02344,.23633,.02344,.67383,.1416,1.31152,.16504,1.3457,.67383,2.24414,1.52441,2.69238h-3.61426V2.40918Z"/><path class="cls-2" d="M523.86963,51.97754l.35352-.2832c.61426-.49609,1.00391-1.29883,1.16992-2.40918l.1416-1.31152V6.41309l-.1416-1.31152c-.21289-1.32227-.7207-2.21973-1.52344-2.69238h3.61328V51.97754h-3.61328Zm7.51074-4.00391c.02344,1.67773,.46094,2.91797,1.31152,3.7207l.35449,.2832h-3.61426V2.40918h4.6416l3.29492,.07031c3.87402,.18945,7.12207,1.48828,9.74316,3.89746,2.83496,2.59863,4.25195,5.76367,4.25195,9.49609,0,2.12598-.49609,4.15723-1.48828,6.09375-1.0625,2.05566-2.52734,3.75586-4.39258,5.10254-.75684,.54395-1.70117,1.09863-2.83496,1.66504l-.85059,.4248,.56738,.92188c2.69238,4.22852,6.33008,8.88184,10.91309,13.95996,2.99902,3.37793,5.83398,5.77539,8.50293,7.19238,.40137,.26074,1.32227,.65039,2.76367,1.16895v.38965h-5.38574l-1.38184-.67285c-6.51953-3.25977-11.86914-7.57031-16.0498-12.93262-1.98438-2.50293-3.89746-5.18457-5.74023-8.04297l-.53125-.81445h-4.0752v17.64453Zm0-43.61621V28.37988h2.33887c3.30664-.04688,6.08789-1.27539,8.34375-3.68457s3.40723-5.2793,3.45508-8.61035c0-1.55859-.30762-3.09375-.92188-4.60547-1.58203-3.80273-4.22852-6.10645-7.93652-6.90918-.66113-.1416-1.29883-.21289-1.91309-.21289h-3.36621Zm22.00293,42.41211c-2.83398-2.69336-5.55078-5.74023-8.14844-9.1416-1.58301-2.00781-3.25977-4.3584-5.03125-7.05078l-.49609-.74414-2.19727,.2832,.70898,.95703c2.52734,3.4248,4.45215,5.96484,5.77539,7.61719,2.99902,3.85059,7.32227,7.6416,12.96777,11.37402l-3.5791-3.29492Zm-11.19629-19.66504c.85059-.44824,1.47656-.83789,1.87793-1.16895,3.54297-2.57422,5.32617-5.92871,5.35059-10.0625-.07129-4.32324-2.11426-7.61816-6.12988-9.88574l-1.52344-.74414,1.38184,1.16992c1.46387,1.32227,2.57422,2.85742,3.33008,4.60547,.66113,1.55957,.99219,3.24805,.99219,5.06641,0,1.67773-.2832,3.25977-.84961,4.74805-.66211,1.7959-1.70117,3.4375-3.11816,4.9248l-1.31152,1.34668Z"/><path class="cls-2" d="M573.62842,7.29883V48.93066c-.02344,.33105,0,.67285,.07129,1.02734,.1416,1.11035,.67285,1.7832,1.59473,2.01953h-5.2793l.45996-.21289c.7793-.40137,1.18066-.99219,1.20508-1.77148V5.4209l-.9209-1.16992c-.30762-.37695-.55566-.66113-.74414-.84961l-1.02832-.78027-.31836-.21191h2.94043l44.78613,47.22949v2.58691l-42.7666-44.92676Zm.14258-4.88965h4.07422l-.21289,.38965c-.04785,.07031-.05859,.16504-.03516,.2832,0,.54395,.40137,1.2168,1.20508,2.01953l35.6084,37.16797V5.4209c0-.33105-.02441-.68555-.07129-1.06348-.11816-.85059-.49609-1.42871-1.13379-1.73633l-.45996-.21191h5.2793c-.94531,.25977-1.47656,.93262-1.59473,2.01953-.07129,.37793-.09473,.70801-.07129,.99219l.03613,41.80859L573.771,2.40918Z"/><path class="cls-2" d="M629.4126,51.97754l.35449-.2832c.61328-.49609,1.00391-1.29883,1.16895-2.40918l.1416-1.31152V6.41309l-.1416-1.31152c-.21289-1.32227-.7207-2.21973-1.52344-2.69238h3.61426V51.97754h-3.61426Zm5.5625-49.56836h3.61426l-.31934,.2832c-.58984,.51953-.99121,1.32324-1.2041,2.40918l-.1416,1.31152V47.97363l.1416,1.31152c.16504,.99121,.56641,1.79492,1.2041,2.40918l.31934,.2832h-3.61426V2.40918Z"/><path class="cls-2" d="M649.55127,44.07617h.28418l.70801,.99219c.7793,1.08691,1.6416,1.99609,2.58691,2.72852,2.43262,2.00781,5.33789,3.02344,8.71582,3.04688,2.45703,0,4.45215-.89746,5.98828-2.69238,1.53516-1.79492,2.29102-3.90918,2.26758-6.34277-.02441-2.64551-.99219-4.95996-2.90527-6.94434l-11.01953-10.94824c-.99219-.94434-1.91309-1.99609-2.76367-3.15332-1.9375-2.52734-2.89355-4.99609-2.87012-7.40527-.02344-3.47266,1.32324-6.31836,4.03906-8.53906,2.59863-2.12598,5.63379-3.21191,9.10645-3.25977,1.0625,.02344,2.24316,.16504,3.54297,.4248l2.09082,.46094c.40137,.09473,.82617,.1416,1.27539,.1416,.47168,.02344,.94434-.04688,1.41699-.21289l.74414-.24805V7.19238h-.31934l-.53125-.67383c-1.72461-2.05469-4.38184-3.05859-7.97168-3.01172-2.17383,.04785-3.98047,.86328-5.4209,2.44531-1.44141,1.58301-2.15039,3.47168-2.12598,5.66895-.02441,2.62207,1.24023,5.17285,3.79102,7.65332,4.9834,4.95996,8.86914,8.92871,11.65723,11.90527,2.71582,2.95215,4.08594,6.09375,4.10938,9.4248,.02344,3.75488-1.27539,6.74414-3.89746,8.96387-2.52734,2.12598-5.63281,3.2002-9.31836,3.22363-2.55078,0-5.33789-.64941-8.36133-1.94824-1.39453-.58984-2.3623-.89746-2.90527-.9209l-1.02832,.07031c-.18848,.04785-.48438,.05957-.88574,.03516v-5.95215Zm5.77539-37.27344c-1.88965,1.62988-2.83398,3.66113-2.83398,6.09375-.02441,1.48828,.30664,2.83496,.99219,4.03906,.82617,1.58301,1.95996,3.09473,3.40137,4.53516l11.44434,11.76367c2.45605,2.50391,3.69629,5.29102,3.71973,8.36133-.04688,2.2207-.7207,4.57129-2.01953,7.05176,2.64551-2.3623,3.96875-5.03223,3.96875-8.00781,0-2.74023-1.27539-5.4209-3.82715-8.04297l-11.7627-12.01172c-2.64551-2.64453-3.96875-5.38574-3.96875-8.21973-.04688-2.71582,.60254-4.85449,1.94922-6.41309l-1.06348,.85059Z"/><path class="cls-2" d="M685.98975,51.97754l.35449-.2832c.82617-.80273,1.2627-2.04297,1.31055-3.7207V6.41309c-.04785-1.65332-.48438-2.89355-1.31055-3.7207l-.35449-.2832h3.61426V51.97754h-3.61426Zm7.51172-25.72363v21.71973l.10547,1.31152c.14258,1.32227,.66113,2.21973,1.55957,2.69238h-3.61426V2.40918h3.61426l-.35449,.2832c-.68555,.59082-1.08691,1.39355-1.20508,2.40918l-.10547,1.31152V24.30566h32.56152V6.41309l-.10645-1.31152c-.16602-1.29883-.68555-2.19629-1.55957-2.69238h3.61426V51.97754h-3.61426l.35449-.2832c.66113-.56738,1.06348-1.37012,1.20508-2.40918l.10645-1.31152V26.25391h-32.56152Zm36.45898-23.84473h3.61328l-.35352,.2832c-.68555,.59082-1.08691,1.39355-1.20508,2.40918l-.10645,1.31152V47.97363l.10645,1.31152c.1416,1.32227,.66113,2.21973,1.55859,2.69238h-3.61328V2.40918Z"/><path class="cls-2" d="M745.10303,51.97754l.35449-.2832c.61328-.49609,1.00391-1.29883,1.16895-2.40918l.1416-1.31152V6.41309l-.1416-1.31152c-.21289-1.32227-.7207-2.21973-1.52344-2.69238h3.61426V51.97754h-3.61426Zm5.5625-49.56836h3.61426l-.31934,.2832c-.58984,.51953-.99121,1.32324-1.2041,2.40918l-.1416,1.31152V47.97363l.1416,1.31152c.16504,.99121,.56641,1.79492,1.2041,2.40918l.31934,.2832h-3.61426V2.40918Z"/><path class="cls-2" d="M769.13916,7.29883V48.93066c-.02344,.33105,0,.67285,.07129,1.02734,.1416,1.11035,.67285,1.7832,1.59473,2.01953h-5.2793l.45996-.21289c.7793-.40137,1.18066-.99219,1.20508-1.77148V5.4209l-.9209-1.16992c-.30762-.37695-.55566-.66113-.74414-.84961l-1.02832-.78027-.31836-.21191h2.94043l44.78613,47.22949v2.58691l-42.7666-44.92676Zm.14258-4.88965h4.07422l-.21289,.38965c-.04785,.07031-.05859,.16504-.03516,.2832,0,.54395,.40137,1.2168,1.20508,2.01953l35.6084,37.16797V5.4209c0-.33105-.02441-.68555-.07129-1.06348-.11816-.85059-.49609-1.42871-1.13379-1.73633l-.45996-.21191h5.2793c-.94531,.25977-1.47656,.93262-1.59473,2.01953-.07129,.37793-.09473,.70801-.07129,.99219l.03613,41.80859L769.28174,2.40918Z"/><path class="cls-2" d="M861.94971,51.19824c-1.7959,.51953-3.47266,.88574-5.03125,1.09863-2.0791,.33008-4.16992,.49512-6.27148,.49512-3.30762,.02344-6.30762-.37793-9-1.2041-5.48047-1.60645-9.89746-4.62988-13.25098-9.07031-3.30762-4.3457-4.97266-9.43652-4.99609-15.27148-.02441-7.53418,2.94043-13.83008,8.89355-18.88477,5.33789-4.55859,12.01074-6.82617,20.01855-6.80273,3.09375-.02344,6.99121,.62598,11.69238,1.94824,.80273,.23633,1.45215,.35449,1.94824,.35449,.21289,.04785,.51953,.0127,.92188-.10645l.60156-.10547,1.02832,4.99512-.35449,.07129-.56738-.53125c-1.22852-1.11035-2.66895-2.01953-4.32227-2.72852-1.81934-.7793-3.7207-1.32227-5.7041-1.62988-1.34668-.21289-2.7168-.31934-4.11035-.31934-6.73242,.02441-12.43652,2.24512-17.11328,6.66113-4.74805,4.48828-7.11035,10.08691-7.08691,16.79492,.02344,6.73242,2.35059,12.38965,6.98047,16.97168,4.62891,4.58301,10.29785,6.88574,17.00684,6.90918,1.86621,0,3.68555-.21289,5.45703-.6377,.80273-.16504,1.58203-.40137,2.33789-.70898l.74414-.2832v-17.18457c0-.21191-.04785-.64941-.1416-1.31055-.11816-.99219-.50781-1.7832-1.16895-2.37402l-.35449-.31934h3.61426v22.67676l-1.77148,.49609Zm-24.87305-3.5791l-2.16211-2.23145c-2.81055-2.95312-4.75977-5.84668-5.8457-8.68066-1.20508-2.95312-1.7959-6.20117-1.77148-9.74414-.02441-3.33008,.50781-6.29492,1.59473-8.89355,.56641-1.44043,1.4873-3.09375,2.76367-4.95996,1.36914-2.03125,2.97559-3.87402,4.81836-5.52734l-2.62207,1.94824c-2.62207,2.05566-4.70117,4.69531-6.23633,7.91895-1.53516,3.22461-2.29102,6.4668-2.26758,9.72656-.02344,3.33008,.78027,6.70801,2.41016,10.13281,1.0625,2.3623,2.36133,4.31152,3.89746,5.84668,.66016,.73242,1.5459,1.51172,2.65723,2.33789l2.76367,2.12598Zm28.59277-19.59375h3.61426l-.35449,.31934c-.85059,.80371-1.28809,2.03223-1.31055,3.68457v17.78711l-1.94922,.56641V28.02539Z"/><path class="cls-2" d="M878.65088,44.07617h.28418l.70801,.99219c.7793,1.08691,1.6416,1.99609,2.58691,2.72852,2.43262,2.00781,5.33789,3.02344,8.71582,3.04688,2.45703,0,4.45215-.89746,5.98828-2.69238,1.53516-1.79492,2.29102-3.90918,2.26758-6.34277-.02441-2.64551-.99219-4.95996-2.90527-6.94434l-11.01953-10.94824c-.99219-.94434-1.91309-1.99609-2.76367-3.15332-1.9375-2.52734-2.89355-4.99609-2.87012-7.40527-.02344-3.47266,1.32324-6.31836,4.03906-8.53906,2.59863-2.12598,5.63379-3.21191,9.10645-3.25977,1.0625,.02344,2.24316,.16504,3.54297,.4248l2.09082,.46094c.40137,.09473,.82617,.1416,1.27539,.1416,.47168,.02344,.94434-.04688,1.41699-.21289l.74414-.24805V7.19238h-.31934l-.53125-.67383c-1.72461-2.05469-4.38184-3.05859-7.97168-3.01172-2.17383,.04785-3.98047,.86328-5.4209,2.44531-1.44141,1.58301-2.15039,3.47168-2.12598,5.66895-.02441,2.62207,1.24023,5.17285,3.79102,7.65332,4.9834,4.95996,8.86914,8.92871,11.65723,11.90527,2.71582,2.95215,4.08594,6.09375,4.10938,9.4248,.02344,3.75488-1.27539,6.74414-3.89746,8.96387-2.52734,2.12598-5.63281,3.2002-9.31836,3.22363-2.55078,0-5.33789-.64941-8.36133-1.94824-1.39453-.58984-2.3623-.89746-2.90527-.9209l-1.02832,.07031c-.18848,.04785-.48438,.05957-.88574,.03516v-5.95215Zm5.77539-37.27344c-1.88965,1.62988-2.83398,3.66113-2.83398,6.09375-.02441,1.48828,.30664,2.83496,.99219,4.03906,.82617,1.58301,1.95996,3.09473,3.40137,4.53516l11.44434,11.76367c2.45605,2.50391,3.69629,5.29102,3.71973,8.36133-.04688,2.2207-.7207,4.57129-2.01953,7.05176,2.64551-2.3623,3.96875-5.03223,3.96875-8.00781,0-2.74023-1.27539-5.4209-3.82715-8.04297l-11.7627-12.01172c-2.64551-2.64453-3.96875-5.38574-3.96875-8.21973-.04688-2.71582,.60254-4.85449,1.94922-6.41309l-1.06348,.85059Z"/></g></g></svg>